# xmcd
#
# Track frame offsets:
#	150
#	17750
#	39380
#	48555
#	67339
#	84847
#	113931
#	146041
#	164442
#	195784
#	221675
#	238612
#	259542
#
# Disc length: 3687 seconds
#
# Revision: 1
# Processed by: cddbd v1.5.1PL2 Copyright (c) Steve Scherf et al.
# Submitted via: audiograbber 1.83.01
#
DISCID=b30e650d
DTITLE=Philipp Fankhauser Blues Band - live - so damn' cool
DYEAR=2003
DGENRE=Blues
TTITLE0=I feel so good
TTITLE1=That's alright
TTITLE2=Introduction (Why wrong is right)
TTITLE3=Baby please don't go
TTITLE4=Key to the highway
TTITLE5=Black cat bone
TTITLE6=Soon as the weather breaks
TTITLE7=Early in the morning
TTITLE8=Bring your fine self home
TTITLE9=Ain't nobody's business
TTITLE10=Dedicated
TTITLE11=Life's so damn' cool
TTITLE12=I'm so lonesome (I could cry)
EXTD=
EXTT0=
EXTT1=
EXTT2=
EXTT3=
EXTT4=
EXTT5=
EXTT6=
EXTT7=
EXTT8=
EXTT9=
EXTT10=
EXTT11=
EXTT12=
PLAYORDER=
